<?xml version="1.0" encoding="utf-8"?>
<!-- Generator: Adobe Illustrator 24.0.3, SVG Export Plug-In . SVG Version: 6.00 Build 0)  -->
<svg version="1.1" id="Layer_1" focusable="false" xmlns="http://www.w3.org/2000/svg" xmlns:xlink="http://www.w3.org/1999/xlink"
	 x="0px" y="0px" viewBox="0 0 512 512" style="enable-background:new 0 0 512 512;" xml:space="preserve">
<style type="text/css">
	.st0{fill:#FFFFFF;}
	.st1{fill:#EE191C;}
</style>
<circle class="st0" cx="256" cy="256" r="248"/>
<path class="st1" d="M463,256c0,114.3-92.7,207-207,207S49,370.3,49,256c0-114.3,92.7-207,207-207S463,141.7,463,256z M256,307.7
	c-27.1,0-49.1,22-49.1,49.1s22,49.1,49.1,49.1s49.1-22,49.1-49.1S283.1,307.7,256,307.7z M209.4,131.3l7.9,145.1
	c0.4,6.8,6,12.1,12.8,12.1h51.8c6.8,0,12.4-5.3,12.8-12.1l7.9-145.1c0.4-7.3-5.4-13.5-12.8-13.5h-67.6
	C214.9,117.8,209,124,209.4,131.3L209.4,131.3z"/>
</svg>
